<?xml version="1.0" encoding="utf-8"?><svg viewBox="0 0 100 22" xmlns="http://www.w3.org/2000/svg" xmlns:xlink="http://www.w3.org/1999/xlink"><style>:root>svg{display:none}:root>svg:target{display:block}</style><svg fill="none" viewBox="0 0 13 13" id="cross" xmlns="http://www.w3.org/2000/svg"><path stroke="currentColor" d="M12.354.354L.738 11.969M.738.54l11.616 11.615"/></svg><svg fill="none" viewBox="0 0 8 17" id="fb" xmlns="http://www.w3.org/2000/svg"><path d="M4.246 16.99H1.093l-.035-8.492H0v-3.19h1.058V3.81C1.058 1.421 2.577 0 5.218 0h2.2v3.186h-2.11c-1.025 0-1.06.3-1.06 1.063v1.058H7.43l-.263 3.191h-2.92v8.492z" fill="currentColor"/></svg><svg fill="none" viewBox="0 0 15 15" id="insta" xmlns="http://www.w3.org/2000/svg"><path d="M11.02 0H4.198A3.729 3.729 0 00.471 3.723v6.827a3.724 3.724 0 003.727 3.723h6.822a3.725 3.725 0 003.727-3.723V3.723A3.73 3.73 0 0011.02 0zm0 12.485H4.198a1.936 1.936 0 01-1.934-1.934V3.724a1.93 1.93 0 011.934-1.927h6.822c1.067 0 1.934.864 1.934 1.927v6.827a1.937 1.937 0 01-1.934 1.934z" fill="currentColor"/><path d="M7.609 3.11a4.034 4.034 0 00-4.027 4.03 4.034 4.034 0 004.027 4.025 4.03 4.03 0 004.027-4.025 4.032 4.032 0 00-4.027-4.03zm0 6.259a2.232 2.232 0 11.001-4.46 2.232 2.232 0 01-.001 4.46z" fill="currentColor"/><path d="M11.357 2.36a.969.969 0 00-.964.964c0 .531.433.97.964.97a.972.972 0 00.965-.97.97.97 0 00-.965-.964z" fill="currentColor"/></svg><svg fill="none" viewBox="0 0 100 15" id="logo" xmlns="http://www.w3.org/2000/svg"><path d="M.26 1.4V14h2.016V8.906h5.058V6.44H2.276V3.848h7.596V1.4H.26zm12.473 12.96c2.394 0 3.51-1.71 3.51-4.86V1.4h-1.98v7.56c0 2.25-.54 2.916-1.53 2.916-.9 0-1.26-.576-1.386-1.296l-1.98.36c.27 2.106 1.296 3.42 3.366 3.42zm5.659-6.66c0 3.672 3.996 6.66 8.928 6.66s8.928-2.988 8.928-6.66-3.996-6.66-8.928-6.66-8.928 2.988-8.928 6.66zm2.214 0c0-2.322 3.006-4.176 6.714-4.176 3.672 0 6.66 1.854 6.66 4.176 0 2.304-2.988 4.158-6.66 4.158-3.708 0-6.714-1.854-6.714-4.158zM40.403 14V8.906h.396l8.28 5.796V12.38l-5.04-3.474h.162c3.798 0 5.076-1.602 5.076-3.744 0-2.07-1.278-3.762-5.076-3.762h-5.814V14h2.016zm3.132-10.278c2.25 0 3.51.414 3.51 1.71 0 1.332-1.26 1.602-3.51 1.602h-3.132V3.722h3.132zm8.159-2.34V14h6.174c4.878 0 8.856-2.466 8.856-6.3 0-3.852-3.978-6.318-8.856-6.318h-6.174zm2.016 10.242V3.722h3.834c3.996 0 6.948 1.296 6.948 3.978 0 2.538-2.952 3.924-6.948 3.924H53.71zm19.473 2.394h1.8V5h-1.8v9.018zm-.27-12.042c0 .594.486 1.116 1.17 1.116a1.13 1.13 0 001.152-1.116c0-.594-.468-1.17-1.152-1.17-.702 0-1.17.576-1.17 1.17zM76.787 14h1.782V9.104c.18-1.098 1.026-2.142 2.52-2.142 1.026 0 2.178.486 2.178 2.592V14h1.782V9.014c0-2.862-1.818-4.284-3.69-4.284-1.44 0-2.286.828-2.79 2.124V5h-1.782v9zm14.203.27c2.52 0 4.392-1.764 4.734-3.942H94.05c-.324.972-1.35 1.692-3.06 1.692-2.142 0-3.222-1.098-3.222-2.43 0-1.35 1.08-2.628 3.222-2.628 1.764 0 2.808.882 3.096 1.962h1.656C95.436 6.71 93.618 4.73 90.99 4.73c-2.898 0-4.86 2.394-4.86 4.86 0 2.484 1.998 4.68 4.86 4.68zm6.08-1.332c0 .72.485 1.206 1.205 1.206.72 0 1.206-.486 1.206-1.206 0-.738-.486-1.224-1.206-1.224s-1.206.486-1.206 1.224z" fill="currentColor"/></svg><svg fill="none" viewBox="0 0 24 22" id="menu" xmlns="http://www.w3.org/2000/svg"><path d="M19.672 7.437a3.541 3.541 0 10-3.54-3.541c0 .304.04.596.114.877L7.218 8.955A3.536 3.536 0 004.33 7.46a3.541 3.541 0 000 7.083 3.534 3.534 0 002.887-1.495l9.028 4.182a3.554 3.554 0 00-.115.877 3.541 3.541 0 103.541-3.54 3.534 3.534 0 00-2.887 1.494L7.757 11.88c.072-.281.115-.573.115-.877 0-.305-.042-.597-.115-.878l9.028-4.182a3.532 3.532 0 002.887 1.495z" fill="currentColor"/></svg><svg fill="none" viewBox="0 0 27 22" id="reload" xmlns="http://www.w3.org/2000/svg"><path d="M10.69 1.48c-5.26 0-9.52 4.26-9.52 9.52s4.26 9.52 9.52 9.52 9.52-4.26 9.52-9.52V7.14" stroke="currentColor" stroke-width="2" stroke-miterlimit="10"/><path d="M15.11 12.51l5.04-5.37 5.16 5.49" stroke="currentColor" stroke-width="2" stroke-miterlimit="10" stroke-linejoin="round"/></svg><svg fill="none" viewBox="0 0 10 10" id="star" xmlns="http://www.w3.org/2000/svg"><path d="M0 6.353L3.903 4.99 0 3.647l1.346-2.323L4.443 4.01 3.673 0h2.673l-.77 4.01 3.078-2.686L10 3.647 6.134 4.99 10 6.353 8.654 8.657 5.577 5.989 6.347 10H3.673l.769-4.03-3.097 2.687L0 6.353z" fill="currentColor"/></svg><svg fill="none" viewBox="0 0 17 10" id="vk" xmlns="http://www.w3.org/2000/svg"><path d="M14.123 4.9s2.24-3.173 2.464-4.22c.073-.368-.092-.577-.48-.577h-1.939c-.444 0-.61.19-.744.477 0 0-1.052 2.246-2.327 3.667-.41.456-.619.596-.846.596-.186 0-.265-.152-.265-.565V.65c0-.501-.06-.648-.48-.648h-3.11c-.24 0-.388.133-.388.324 0 .476.726.583.726 1.877v2.671c0 .532-.028.743-.281.743-.673 0-2.258-2.31-3.147-4.937C3.13.145 2.937 0 2.435 0H.486C.206 0 0 .19 0 .477 0 .99.607 3.408 2.993 6.644 4.599 8.82 6.706 10 8.603 10c1.159 0 1.439-.197 1.439-.686V7.64c0-.413.165-.59.4-.59.266 0 .743.083 1.838 1.174C13.585 9.479 13.677 10 14.39 10h2.178c.224 0 .432-.107.432-.477 0-.494-.638-1.37-1.616-2.416-.404-.54-1.054-1.118-1.26-1.384-.296-.315-.209-.493 0-.823z" fill="currentColor"/></svg></svg>